<svg width="73" height="63" viewBox="0 0 73 63" fill="none" xmlns="http://www.w3.org/2000/svg">
<path d="M48.9859 21.4016C50.7574 19.1055 54.336 19.8679 54.2842 23.3997C54.2511 25.6529 52.932 27.3739 52.2479 28.1176C52.9425 28.7611 53.5546 29.4793 54.0806 30.2521C55.0387 29.3787 56.8585 28.0467 59.0013 28.0992C62.181 28.1775 63.8416 31.8703 60.693 34.1387C59.136 35.2597 57.3572 35.4819 56.1228 35.4683C56.4179 37.457 56.237 39.5458 55.5011 41.5678C53.1398 48.0548 45.9668 51.3998 39.4797 49.0387L19.7461 41.8563C13.259 39.4952 9.91433 32.322 12.2752 25.8349C14.6365 19.3479 21.8095 16.0029 28.2966 18.364L47.8494 25.4806C47.8177 24.2943 48.0011 22.6763 48.9859 21.4016ZM18.0566 27.9017C18.0614 27.5721 17.8001 27.3017 17.472 27.2982L15.5859 27.2778C15.2577 27.2743 14.9874 27.5381 14.9825 27.8678C14.9793 28.1232 15.1348 28.3433 15.3572 28.4313C15.4216 28.4568 15.4933 28.47 15.5672 28.4714L15.7537 28.4727C14.4176 30.9819 14.9881 34.3237 17.1156 36.2036C17.6353 36.6637 18.229 37.0181 18.8653 37.2696L18.8678 37.2685C20.663 37.9781 22.7849 37.852 24.4688 36.87C24.4674 36.8754 24.4673 36.8813 24.4658 36.8866C24.3878 37.1808 24.543 37.4816 24.8186 37.5908L24.8204 37.5914C24.8423 37.6001 24.8654 37.6071 24.8881 37.614C25.2035 37.698 25.5297 37.5079 25.6136 37.188C25.8744 36.2 25.7713 35.1064 25.3258 34.19C25.1815 33.8936 24.8275 33.7729 24.5325 33.9169C24.2365 34.063 24.1149 34.4197 24.2573 34.7156C24.3653 34.9384 24.4428 35.1759 24.4948 35.4194C24.4707 35.4335 24.4462 35.4484 24.4237 35.4663C22.583 36.9273 19.6577 36.855 17.9019 35.3051C16.1465 33.755 15.7044 30.8503 16.9129 28.8313C16.9775 28.7234 17.0033 28.6032 16.9959 28.4863L17.4532 28.4917C17.7814 28.4952 18.0517 28.2314 18.0566 27.9017ZM46.2419 34.1031C43.6567 32.325 40.666 35.1505 40.5392 35.272C40.2954 35.5058 40.2888 35.8936 40.5223 36.1378C40.756 36.382 41.144 36.3903 41.3884 36.1568C41.4243 36.1209 43.7883 33.9043 45.5457 35.1135C47.3083 36.3251 46.3111 38.8727 46.2667 38.9831C46.1392 39.2957 46.29 39.6542 46.6026 39.7819C46.6558 39.8022 46.7117 39.8166 46.7665 39.8228L46.7686 39.8257C47.0323 39.8552 47.2972 39.7077 47.4026 39.4485C47.9027 38.2212 48.3077 35.5226 46.2419 34.1031ZM45.7739 28.9216C45.5335 28.6828 45.1458 28.6879 44.9069 28.9282C44.6682 29.1687 44.6737 29.5588 44.9144 29.7956C45.8071 30.6736 47.3326 32.359 47.6223 33.1486C47.706 33.3737 47.9074 33.5225 48.1307 33.5477L48.131 33.5499C48.222 33.5601 48.3178 33.5477 48.4096 33.5152C48.7273 33.3967 48.8906 33.0446 48.7744 32.7271C48.2963 31.4214 46.0335 29.1769 45.7739 28.9216Z" fill="url(#paint0_linear_64_294)"/>
<path d="M21.7704 42.5381C23.3921 42.9662 25.0834 43.0636 26.7436 42.8245C28.4038 42.5853 29.9988 42.0144 31.4338 41.1459C32.8687 40.2774 34.1141 39.1289 35.0959 37.769C36.0778 36.4091 36.7758 34.8654 37.1486 33.2301C37.5213 31.5947 37.5611 29.9011 37.2656 28.25C36.9701 26.5989 36.3453 25.0242 35.4285 23.6196C34.5117 22.2151 33.3216 21.0094 31.929 20.0744C30.5365 19.1394 28.97 18.4943 27.3229 18.1773L24.9611 30.4522L21.7704 42.5381Z" fill="url(#paint1_linear_64_294)"/>
<defs>
<linearGradient id="paint0_linear_64_294" x1="13.3833" y1="22.7905" x2="59.5332" y2="39.5877" gradientUnits="userSpaceOnUse">
<stop stop-color="#D36F42" offset=""/>
<stop offset="1" stop-color="#F79F55"/>
</linearGradient>
<linearGradient id="paint1_linear_64_294" x1="36.0664" y1="35.0263" x2="25.2168" y2="32.6736" gradientUnits="userSpaceOnUse">
<stop stop-color="#D36F42" offset=""/>
<stop offset="1" stop-color="#F79F55" stop-opacity="0"/>
</linearGradient>
</defs>
</svg>
