<svg width="111" height="53" viewBox="0 0 111 53" fill="none" xmlns="http://www.w3.org/2000/svg">
<path d="M106.844 52H97.9062V18.5312H106.844V52Z" fill="#333333"/>
<path d="M86.875 52C84.8125 52 82.875 51.6146 81.0625 50.8438C79.25 50.0521 77.6562 48.9792 76.2812 47.625C74.9271 46.25 73.8542 44.6562 73.0625 42.8438C72.2917 41.0312 71.9062 39.0938 71.9062 37.0312V27.0938H67.75V18.5938H71.9062V5.21875H80.4062V18.5938H93.3438V27.0938H80.4062V37.0312C80.4062 37.9271 80.5729 38.7708 80.9062 39.5625C81.2396 40.3333 81.6979 41.0104 82.2812 41.5938C82.8646 42.1771 83.5521 42.6458 84.3438 43C85.1354 43.3333 85.9792 43.5 86.875 43.5H93.3438V52H86.875Z" fill="#333333"/>
<path d="M50.0312 43.8125C50.3646 43.9167 50.6979 43.9896 51.0312 44.0312C51.3646 44.0521 51.6979 44.0625 52.0312 44.0625C52.8646 44.0625 53.6667 43.9479 54.4375 43.7188C55.2083 43.4896 55.9271 43.1667 56.5938 42.75C57.2812 42.3125 57.8854 41.7917 58.4062 41.1875C58.9479 40.5625 59.3854 39.875 59.7188 39.125L65.9688 45.4062C65.1771 46.5312 64.2604 47.5417 63.2188 48.4375C62.1979 49.3333 61.0833 50.0938 59.875 50.7188C58.6875 51.3438 57.4271 51.8125 56.0938 52.125C54.7812 52.4583 53.4271 52.625 52.0312 52.625C49.6771 52.625 47.4583 52.1875 45.375 51.3125C43.3125 50.4375 41.5 49.2188 39.9375 47.6562C38.3958 46.0938 37.1771 44.2396 36.2812 42.0938C35.3854 39.9271 34.9375 37.5521 34.9375 34.9688C34.9375 32.3229 35.3854 29.9062 36.2812 27.7188C37.1771 25.5312 38.3958 23.6667 39.9375 22.125C41.5 20.5833 43.3125 19.3854 45.375 18.5312C47.4583 17.6771 49.6771 17.25 52.0312 17.25C53.4271 17.25 54.7917 17.4167 56.125 17.75C57.4583 18.0833 58.7188 18.5625 59.9062 19.1875C61.1146 19.8125 62.2396 20.5833 63.2812 21.5C64.3229 22.3958 65.2396 23.4062 66.0312 24.5312L50.0312 43.8125ZM54.4062 26.2188C54.0104 26.0729 53.6146 25.9792 53.2188 25.9375C52.8438 25.8958 52.4479 25.875 52.0312 25.875C50.8646 25.875 49.7604 26.0938 48.7188 26.5312C47.6979 26.9479 46.8021 27.5521 46.0312 28.3438C45.2812 29.1354 44.6875 30.0938 44.25 31.2188C43.8125 32.3229 43.5938 33.5729 43.5938 34.9688C43.5938 35.2812 43.6042 35.6354 43.625 36.0312C43.6667 36.4271 43.7188 36.8333 43.7812 37.25C43.8646 37.6458 43.9583 38.0312 44.0625 38.4062C44.1667 38.7812 44.3021 39.1146 44.4688 39.4062L54.4062 26.2188Z" fill="#333333"/>
<path d="M8.96875 52H0V7.1875H8.96875V29.5938L25.6562 7.1875H35.8438L21.6875 26.0938L35.8438 52H25.6562L15.8125 33.875L8.96875 43.0312V52Z" fill="#333333"/>
<circle cx="102.5" cy="9.5" r="7.5" fill="url(#paint0_linear_57_140)"/>
<defs>
<linearGradient id="paint0_linear_57_140" x1="95" y1="9.5" x2="110" y2="9.5" gradientUnits="userSpaceOnUse">
<stop stop-color="#D36F42"/>
<stop offset="1" stop-color="#F79F55"/>
</linearGradient>
</defs>
</svg>
